<svg width="32" height="32" viewBox="0 0 32 32" fill="none" xmlns="http://www.w3.org/2000/svg">
<path d="M11.7565 8.92917C11.3815 9.30423 11.1709 9.81285 11.1709 10.3432C11.1709 10.8735 11.3815 11.3821 11.7565 11.7572L14.9385 14.9392C15.0778 15.0786 15.2432 15.1891 15.4252 15.2646C15.6073 15.34 15.8024 15.3789 15.9995 15.3789C16.1965 15.3789 16.3917 15.34 16.5737 15.2646C16.7558 15.1891 16.9212 15.0786 17.0605 14.9392L20.2425 11.7572C20.6174 11.3821 20.828 10.8735 20.828 10.3432C20.828 9.81285 20.6174 9.30423 20.2425 8.92917L17.0595 5.74718C16.9202 5.60779 16.7548 5.49721 16.5727 5.42177C16.3907 5.34633 16.1955 5.3075 15.9985 5.3075C15.8014 5.3075 15.6063 5.34633 15.4242 5.42177C15.2422 5.49721 15.0768 5.60779 14.9375 5.74718L11.7565 8.92917Z" fill="#1E1E1E"/>
<path d="M5.74727 14.9401C5.46637 15.2213 5.30859 15.6026 5.30859 16.0001C5.30859 16.3976 5.46637 16.7788 5.74727 17.0601L8.92927 20.2431C9.30433 20.618 9.81295 20.8287 10.3433 20.8287C10.8736 20.8287 11.3822 20.618 11.7573 20.2431L14.9393 17.0611C15.0787 16.9218 15.1892 16.7564 15.2647 16.5743C15.3401 16.3923 15.379 16.1971 15.379 16.0001C15.379 15.803 15.3401 15.6079 15.2647 15.4258C15.1892 15.2438 15.0787 15.0784 14.9393 14.9391L11.7573 11.7571C11.3822 11.3821 10.8736 11.1715 10.3433 11.1715C9.81295 11.1715 9.30433 11.3821 8.92927 11.7571L5.74727 14.9401Z" fill="#1E1E1E"/>
<path d="M11.7565 20.2429C11.3815 20.618 11.1709 21.1266 11.1709 21.6569C11.1709 22.1872 11.3815 22.6959 11.7565 23.0709L14.9385 26.2529C15.0778 26.3923 15.2432 26.5029 15.4252 26.5783C15.6073 26.6538 15.8024 26.6926 15.9995 26.6926C16.1965 26.6926 16.3917 26.6538 16.5737 26.5783C16.7558 26.5029 16.9212 26.3923 17.0605 26.2529L20.2425 23.0709C20.6174 22.6959 20.828 22.1872 20.828 21.6569C20.828 21.1266 20.6174 20.618 20.2425 20.2429L17.0595 17.0599C16.9202 16.9205 16.7548 16.81 16.5727 16.7345C16.3907 16.6591 16.1955 16.6202 15.9985 16.6202C15.8014 16.6202 15.6063 16.6591 15.4242 16.7345C15.2422 16.81 15.0768 16.9205 14.9375 17.0599L11.7565 20.2429Z" fill="#1E1E1E"/>
<path d="M17.0598 17.0601C16.7789 16.7788 16.6211 16.3976 16.6211 16.0001C16.6211 15.6026 16.7789 15.2213 17.0598 14.9401L20.2428 11.7571C20.6178 11.3821 21.1264 11.1715 21.6568 11.1715C22.1871 11.1715 22.6957 11.3821 23.0708 11.7571L26.2528 14.9391C26.3922 15.0784 26.5027 15.2438 26.5782 15.4258C26.6536 15.6079 26.6925 15.803 26.6925 16.0001C26.6925 16.1971 26.6536 16.3923 26.5782 16.5743C26.5027 16.7564 26.3922 16.9218 26.2528 17.0611L23.0708 20.2431C22.6957 20.618 22.1871 20.8287 21.6568 20.8287C21.1264 20.8287 20.6178 20.618 20.2428 20.2431L17.0598 17.0601Z" fill="#1E1E1E"/>
<path d="M17.999 16C17.999 16.5304 17.7883 17.0391 17.4132 17.4142C17.0382 17.7893 16.5295 18 15.999 18C15.4686 18 14.9599 17.7893 14.5848 17.4142C14.2097 17.0391 13.999 16.5304 13.999 16C13.999 15.4696 14.2097 14.9609 14.5848 14.5858C14.9599 14.2107 15.4686 14 15.999 14C16.5295 14 17.0382 14.2107 17.4132 14.5858C17.7883 14.9609 17.999 15.4696 17.999 16Z" fill="#26C9FC"/>
</svg>
