<svg width="48" height="48" viewBox="0 0 48 48" fill="none" xmlns="http://www.w3.org/2000/svg">
<path d="M42 34.5V16.5L24 13.5L6 16.5V34.5C6 36.4891 6.79018 38.3968 8.1967 39.8033C9.60322 41.2098 11.5109 42 13.5 42H34.5C36.4891 42 38.3968 41.2098 39.8033 39.8033C41.2098 38.3968 42 36.4891 42 34.5Z" fill="url(#paint0_linear_1_443)"/>
<path d="M42 34.5V16.5L24 13.5L6 16.5V34.5C6 36.4891 6.79018 38.3968 8.1967 39.8033C9.60322 41.2098 11.5109 42 13.5 42H34.5C36.4891 42 38.3968 41.2098 39.8033 39.8033C41.2098 38.3968 42 36.4891 42 34.5Z" fill="url(#paint1_linear_1_443)"/>
<path d="M42 34.5V16.5L24 13.5L6 16.5V34.5C6 36.4891 6.79018 38.3968 8.1967 39.8033C9.60322 41.2098 11.5109 42 13.5 42H34.5C36.4891 42 38.3968 41.2098 39.8033 39.8033C41.2098 38.3968 42 36.4891 42 34.5Z" fill="url(#paint2_radial_1_443)" fill-opacity="0.3"/>
<path d="M42 13.5C42 11.5109 41.2098 9.60322 39.8033 8.1967C38.3968 6.79018 36.4891 6 34.5 6H13.5C11.5109 6 9.60322 6.79018 8.1967 8.1967C6.79018 9.60322 6 11.5109 6 13.5V18H42V13.5Z" fill="url(#paint3_linear_1_443)"/>
<path d="M48 34.5C48 38.0804 46.5777 41.5142 44.0459 44.0459C41.5142 46.5777 38.0804 48 34.5 48C30.9196 48 27.4858 46.5777 24.9541 44.0459C22.4223 41.5142 21 38.0804 21 34.5C21 30.9196 22.4223 27.4858 24.9541 24.9541C27.4858 22.4223 30.9196 21 34.5 21C38.0804 21 41.5142 22.4223 44.0459 24.9541C46.5777 27.4858 48 30.9196 48 34.5Z" fill="url(#paint4_linear_1_443)"/>
<path fill-rule="evenodd" clip-rule="evenodd" d="M41.5619 28.9381C41.7016 29.0775 41.8125 29.243 41.8881 29.4252C41.9637 29.6075 42.0026 29.8028 42.0026 30.0001C42.0026 30.1974 41.9637 30.3928 41.8881 30.575C41.8125 30.7573 41.7016 30.9228 41.5619 31.0621L32.5619 40.0621C32.4226 40.2018 32.2571 40.3126 32.0748 40.3883C31.8926 40.4639 31.6972 40.5028 31.4999 40.5028C31.3026 40.5028 31.1073 40.4639 30.925 40.3883C30.7428 40.3126 30.5773 40.2018 30.4379 40.0621L27.4379 37.0621C27.1563 36.7805 26.998 36.3984 26.998 36.0001C26.998 35.6018 27.1563 35.2198 27.4379 34.9381C27.7196 34.6565 28.1016 34.4982 28.4999 34.4982C28.8983 34.4982 29.2803 34.6565 29.5619 34.9381L31.4999 36.8791L39.4379 28.9381C39.5773 28.7984 39.7428 28.6876 39.925 28.612C40.1073 28.5364 40.3026 28.4974 40.4999 28.4974C40.6972 28.4974 40.8926 28.5364 41.0748 28.612C41.2571 28.6876 41.4226 28.7984 41.5619 28.9381Z" fill="url(#paint5_linear_1_443)"/>
<defs>
<linearGradient id="paint0_linear_1_443" x1="18.858" y1="13.5" x2="27.981" y2="41.961" gradientUnits="userSpaceOnUse">
<stop stop-color="#B3E0FF"/>
<stop offset="1" stop-color="#8CD0FF"/>
</linearGradient>
<linearGradient id="paint1_linear_1_443" x1="27.858" y1="25.158" x2="33.075" y2="48.462" gradientUnits="userSpaceOnUse">
<stop stop-color="#DCF8FF" stop-opacity="0"/>
<stop offset="1" stop-color="#FF6CE8" stop-opacity="0.7"/>
</linearGradient>
<radialGradient id="paint2_radial_1_443" cx="0" cy="0" r="1" gradientUnits="userSpaceOnUse" gradientTransform="translate(35.571 38.112) rotate(88.7957) scale(20.3909 19.8436)">
<stop offset="0.497" stop-color="#4A43CB"/>
<stop offset="1" stop-color="#4A43CB" stop-opacity="0"/>
</radialGradient>
<linearGradient id="paint3_linear_1_443" x1="7.446" y1="6" x2="12.078" y2="26.175" gradientUnits="userSpaceOnUse">
<stop stop-color="#0094F0"/>
<stop offset="1" stop-color="#2764E7"/>
</linearGradient>
<linearGradient id="paint4_linear_1_443" x1="21.963" y1="26.064" x2="40.599" y2="45.423" gradientUnits="userSpaceOnUse">
<stop stop-color="#52D17C"/>
<stop offset="1" stop-color="#22918B"/>
</linearGradient>
<linearGradient id="paint5_linear_1_443" x1="29.8139" y1="29.7241" x2="32.8379" y2="43.0801" gradientUnits="userSpaceOnUse">
<stop stop-color="white"/>
<stop offset="1" stop-color="#E3FFD9"/>
</linearGradient>
</defs>
</svg>
