<svg width="43" height="30" viewBox="0 0 43 30" fill="none" xmlns="http://www.w3.org/2000/svg">
<path d="M36.7654 26.367L19.3534 15L36.7654 3.63299C37.3086 3.27837 37.9375 3.07711 38.5857 3.05049C39.2338 3.02387 39.8771 3.17288 40.4476 3.48177C41.018 3.79065 41.4944 4.24794 41.8263 4.80528C42.1583 5.36261 42.3335 5.99929 42.3334 6.648V23.352C42.3335 24.0007 42.1583 24.6374 41.8263 25.1947C41.4944 25.752 41.018 26.2093 40.4476 26.5182C39.8771 26.8271 39.2338 26.9761 38.5857 26.9495C37.9375 26.9229 37.3086 26.7216 36.7654 26.367Z" fill="url(#paint0_radial_1_465)"/>
<path d="M36.7654 26.367L19.3534 15L36.7654 3.63299C37.3086 3.27837 37.9375 3.07711 38.5857 3.05049C39.2338 3.02387 39.8771 3.17288 40.4476 3.48177C41.018 3.79065 41.4944 4.24794 41.8263 4.80528C42.1583 5.36261 42.3335 5.99929 42.3334 6.648V23.352C42.3335 24.0007 42.1583 24.6374 41.8263 25.1947C41.4944 25.752 41.018 26.2093 40.4476 26.5182C39.8771 26.8271 39.2338 26.9761 38.5857 26.9495C37.9375 26.9229 37.3086 26.7216 36.7654 26.367Z" fill="url(#paint1_linear_1_465)" fill-opacity="0.75"/>
<path d="M0.333374 7.5C0.333374 3.36 3.63037 0 7.69837 0H19.9684C24.0364 0 27.3334 3.36 27.3334 7.5V22.5C27.3334 26.64 24.0364 30 19.9684 30H7.69837C3.63037 30 0.333374 26.64 0.333374 22.5V7.5Z" fill="url(#paint2_radial_1_465)"/>
<path opacity="0.5" d="M3.33337 19.5C3.33337 18.3065 3.80748 17.1619 4.65139 16.318C5.49531 15.4741 6.6399 15 7.83337 15H19.8334C21.0268 15 22.1714 15.4741 23.0154 16.318C23.8593 17.1619 24.3334 18.3065 24.3334 19.5C24.3334 20.6935 23.8593 21.8381 23.0154 22.682C22.1714 23.5259 21.0268 24 19.8334 24H7.83337C6.6399 24 5.49531 23.5259 4.65139 22.682C3.80748 21.8381 3.33337 20.6935 3.33337 19.5Z" fill="url(#paint3_linear_1_465)"/>
<path d="M19.8334 21.9C20.4301 21.9 21.0024 21.6629 21.4244 21.241C21.8463 20.819 22.0834 20.2467 22.0834 19.65C22.0834 19.0533 21.8463 18.481 21.4244 18.059C21.0024 17.637 20.4301 17.4 19.8334 17.4C19.2366 17.4 18.6643 17.637 18.2424 18.059C17.8204 18.481 17.5834 19.0533 17.5834 19.65C17.5834 20.2467 17.8204 20.819 18.2424 21.241C18.6643 21.6629 19.2366 21.9 19.8334 21.9ZM7.83337 18C7.43555 18 7.05402 18.158 6.77271 18.4393C6.49141 18.7206 6.33337 19.1022 6.33337 19.5C6.33337 19.8978 6.49141 20.2794 6.77271 20.5607C7.05402 20.842 7.43555 21 7.83337 21H13.8334C14.2312 21 14.6127 20.842 14.894 20.5607C15.1753 20.2794 15.3334 19.8978 15.3334 19.5C15.3334 19.1022 15.1753 18.7206 14.894 18.4393C14.6127 18.158 14.2312 18 13.8334 18H7.83337Z" fill="#BABAFF"/>
<defs>
<radialGradient id="paint0_radial_1_465" cx="0" cy="0" r="1" gradientUnits="userSpaceOnUse" gradientTransform="translate(30.0605 0.60164) rotate(72.275) scale(30.2328 78.2379)">
<stop offset="0.081" stop-color="#F08AF4"/>
<stop offset="0.341" stop-color="#9C6CFE"/>
<stop offset="1" stop-color="#4E44DB"/>
</radialGradient>
<linearGradient id="paint1_linear_1_465" x1="22.8334" y1="15" x2="42.3064" y2="14.25" gradientUnits="userSpaceOnUse">
<stop stop-color="#312A9A"/>
<stop offset="1" stop-color="#312A9A" stop-opacity="0"/>
</linearGradient>
<radialGradient id="paint2_radial_1_465" cx="0" cy="0" r="1" gradientUnits="userSpaceOnUse" gradientTransform="translate(-4.57462 1.251) rotate(45.6253) scale(44.4195 93.3117)">
<stop stop-color="#F08AF4"/>
<stop offset="0.341" stop-color="#9C6CFE"/>
<stop offset="1" stop-color="#4E44DB"/>
</radialGradient>
<linearGradient id="paint3_linear_1_465" x1="2.85637" y1="15" x2="5.81737" y2="27.075" gradientUnits="userSpaceOnUse">
<stop stop-color="#3B148A"/>
<stop offset="1" stop-color="#4B20A0"/>
</linearGradient>
</defs>
</svg>
