<svg width="49" height="48" viewBox="0 0 49 48" fill="none" xmlns="http://www.w3.org/2000/svg">
<path d="M40.8606 18.8138C41.8886 18.1801 42.7599 17.3219 43.4089 16.3035C44.058 15.2851 44.4681 14.133 44.6085 12.9335C44.7489 11.7341 44.6159 10.5184 44.2195 9.37767C43.8231 8.23693 43.1735 7.20075 42.3196 6.34681C41.4657 5.49287 40.4295 4.84335 39.2887 4.44694C38.148 4.05052 36.9323 3.91752 35.7329 4.05789C34.5334 4.19826 33.3813 4.60837 32.3629 5.25745C31.3445 5.90654 30.4863 6.77777 29.8526 7.8058C32.43 8.63426 34.7729 10.0649 36.6872 11.9792C38.6015 13.8935 40.0321 16.2364 40.8606 18.8138Z" fill="url(#paint0_linear_1_480)"/>
<path d="M40.8606 18.8138C41.8886 18.1801 42.7599 17.3219 43.4089 16.3035C44.058 15.2851 44.4681 14.133 44.6085 12.9335C44.7489 11.7341 44.6159 10.5184 44.2195 9.37767C43.8231 8.23693 43.1735 7.20075 42.3196 6.34681C41.4657 5.49287 40.4295 4.84335 39.2887 4.44694C38.148 4.05052 36.9323 3.91752 35.7329 4.05789C34.5334 4.19826 33.3813 4.60837 32.3629 5.25745C31.3445 5.90654 30.4863 6.77777 29.8526 7.8058C32.43 8.63426 34.7729 10.0649 36.6872 11.9792C38.6015 13.8935 40.0321 16.2364 40.8606 18.8138Z" fill="url(#paint1_radial_1_480)"/>
<path d="M19.4806 7.80592C16.9033 8.63438 14.5604 10.065 12.6461 11.9793C10.7317 13.8937 9.3011 16.2365 8.47264 18.8139C7.44461 18.1802 6.57338 17.322 5.92429 16.3036C5.27521 15.2852 4.8651 14.1331 4.72473 12.9337C4.58436 11.7342 4.71736 10.5185 5.11377 9.37779C5.51019 8.23705 6.15971 7.20087 7.01365 6.34693C7.86759 5.49299 8.90377 4.84347 10.0445 4.44706C11.1852 4.05065 12.4009 3.91764 13.6004 4.05801C14.7998 4.19838 15.952 4.60849 16.9703 5.25758C17.9887 5.90666 18.8469 6.77789 19.4806 7.80592Z" fill="url(#paint2_linear_1_480)"/>
<path d="M19.4806 7.80592C16.9033 8.63438 14.5604 10.065 12.6461 11.9793C10.7317 13.8937 9.3011 16.2365 8.47264 18.8139C7.44461 18.1802 6.57338 17.322 5.92429 16.3036C5.27521 15.2852 4.8651 14.1331 4.72473 12.9337C4.58436 11.7342 4.71736 10.5185 5.11377 9.37779C5.51019 8.23705 6.15971 7.20087 7.01365 6.34693C7.86759 5.49299 8.90377 4.84347 10.0445 4.44706C11.1852 4.05065 12.4009 3.91764 13.6004 4.05801C14.7998 4.19838 15.952 4.60849 16.9703 5.25758C17.9887 5.90666 18.8469 6.77789 19.4806 7.80592Z" fill="url(#paint3_radial_1_480)"/>
<path d="M42.3006 39.8658L37.5506 35.1158L35.7826 36.8838L40.5326 41.6338C40.6487 41.7499 40.7865 41.842 40.9381 41.9048C41.0898 41.9677 41.2524 42 41.4166 42C41.5807 42 41.7433 41.9677 41.895 41.9048C42.0467 41.842 42.1845 41.7499 42.3006 41.6338C42.4166 41.5178 42.5087 41.3799 42.5716 41.2283C42.6344 41.0766 42.6667 40.914 42.6667 40.7498C42.6667 40.5857 42.6344 40.4231 42.5716 40.2714C42.5087 40.1198 42.4166 39.9819 42.3006 39.8658Z" fill="url(#paint4_linear_1_480)"/>
<path d="M8.80058 41.6338L13.5506 36.8838L11.7826 35.1158L7.03258 39.8658C6.91649 39.9819 6.8244 40.1198 6.76158 40.2714C6.69875 40.4231 6.66641 40.5857 6.66641 40.7498C6.66641 40.914 6.69875 41.0766 6.76158 41.2283C6.8244 41.3799 6.91649 41.5178 7.03258 41.6338C7.14867 41.7499 7.28648 41.842 7.43816 41.9048C7.58984 41.9677 7.7524 42 7.91658 42C8.08075 42 8.24332 41.9677 8.39499 41.9048C8.54667 41.842 8.68449 41.7499 8.80058 41.6338Z" fill="url(#paint5_linear_1_480)"/>
<path d="M42.6666 23.9999C42.6666 33.9409 34.6076 41.9999 24.6666 41.9999C14.7256 41.9999 6.6666 33.9409 6.6666 23.9999C6.6666 14.0589 14.7256 5.99988 24.6666 5.99988C34.6076 5.99988 42.6666 14.0589 42.6666 23.9999Z" fill="url(#paint6_linear_1_480)"/>
<path d="M40.1666 23.9996C40.1666 32.5596 33.2266 39.4996 24.6666 39.4996C16.1066 39.4996 9.16663 32.5596 9.16663 23.9996C9.16663 15.4396 16.1066 8.49963 24.6666 8.49963C33.2266 8.49963 40.1666 15.4396 40.1666 23.9996Z" fill="url(#paint7_linear_1_480)"/>
<path fill-rule="evenodd" clip-rule="evenodd" d="M23.4166 12.9996C24.1066 12.9996 24.6666 13.5596 24.6666 14.2496V23.9996H31.4166C31.7481 23.9996 32.066 24.1313 32.3004 24.3657C32.5349 24.6002 32.6666 24.9181 32.6666 25.2496C32.6666 25.5812 32.5349 25.8991 32.3004 26.1335C32.066 26.3679 31.7481 26.4996 31.4166 26.4996H23.4166C22.7266 26.4996 22.1666 25.9396 22.1666 25.2496V14.2496C22.1666 13.5596 22.7266 12.9996 23.4166 12.9996Z" fill="url(#paint8_linear_1_480)"/>
<defs>
<linearGradient id="paint0_linear_1_480" x1="46.3686" y1="19.1168" x2="32.0046" y2="7.3668" gradientUnits="userSpaceOnUse">
<stop stop-color="#FF6F47"/>
<stop offset="1" stop-color="#FFCD0F"/>
</linearGradient>
<radialGradient id="paint1_radial_1_480" cx="0" cy="0" r="1" gradientUnits="userSpaceOnUse" gradientTransform="translate(26.6545 23.692) rotate(-45) scale(22.6274)">
<stop offset="0.644" stop-color="#FF6F47"/>
<stop offset="0.942" stop-color="#FF6F47" stop-opacity="0"/>
</radialGradient>
<linearGradient id="paint2_linear_1_480" x1="21.3496" y1="20.6549" x2="6.98564" y2="8.90492" gradientUnits="userSpaceOnUse">
<stop stop-color="#FF6F47"/>
<stop offset="1" stop-color="#FFCD0F"/>
</linearGradient>
<radialGradient id="paint3_radial_1_480" cx="0" cy="0" r="1" gradientUnits="userSpaceOnUse" gradientTransform="translate(25.8959 25.2302) rotate(-135) scale(22.6274)">
<stop offset="0.659" stop-color="#FF6F47"/>
<stop offset="0.949" stop-color="#FF6F47" stop-opacity="0"/>
</radialGradient>
<linearGradient id="paint4_linear_1_480" x1="8.17957" y1="32.0868" x2="9.58557" y2="44.5008" gradientUnits="userSpaceOnUse">
<stop stop-color="#CAD2D9"/>
<stop offset="1" stop-color="#70777D"/>
</linearGradient>
<linearGradient id="paint5_linear_1_480" x1="8.17958" y1="32.0868" x2="9.58558" y2="44.5008" gradientUnits="userSpaceOnUse">
<stop stop-color="#CAD2D9"/>
<stop offset="1" stop-color="#70777D"/>
</linearGradient>
<linearGradient id="paint6_linear_1_480" x1="12.6666" y1="3.99988" x2="30.6666" y2="43.9999" gradientUnits="userSpaceOnUse">
<stop stop-color="#1EC8B0"/>
<stop offset="1" stop-color="#2764E7"/>
</linearGradient>
<linearGradient id="paint7_linear_1_480" x1="13.8836" y1="5.12963" x2="34.1016" y2="48.2606" gradientUnits="userSpaceOnUse">
<stop stop-color="#FDFDFD"/>
<stop offset="1" stop-color="#DEDEFF"/>
</linearGradient>
<linearGradient id="paint8_linear_1_480" x1="26.1856" y1="15.8176" x2="31.9896" y2="25.4916" gradientUnits="userSpaceOnUse">
<stop stop-color="#1EC8B0"/>
<stop offset="1" stop-color="#2764E7"/>
</linearGradient>
</defs>
</svg>
