<svg width="120" height="120" viewBox="0 0 120 120" fill="none" xmlns="http://www.w3.org/2000/svg">
<path d="M15 33.75C15 28.7772 16.9754 24.0081 20.4917 20.4917C24.0081 16.9754 28.7772 15 33.75 15H86.25C91.2228 15 95.9919 16.9754 99.5083 20.4917C103.025 24.0081 105 28.7772 105 33.75V86.25C105 91.2228 103.025 95.9919 99.5083 99.5083C95.9919 103.025 91.2228 105 86.25 105H33.75C28.7772 105 24.0081 103.025 20.4917 99.5083C16.9754 95.9919 15 91.2228 15 86.25V33.75Z" fill="url(#paint0_linear_496_182)"/>
<path d="M73.9055 42.3449C73.2014 41.6407 72.2463 41.2451 71.2505 41.2451C70.2547 41.2451 69.2997 41.6407 68.5955 42.3449C67.8914 43.049 67.4958 44.004 67.4958 44.9999C67.4958 45.9957 67.8914 46.9507 68.5955 47.6549L80.948 59.9999L68.5955 72.3449C67.8914 73.049 67.4958 74.004 67.4958 74.9999C67.4958 75.9957 67.8914 76.9507 68.5955 77.6549C69.2997 78.359 70.2547 78.7546 71.2505 78.7546C72.2463 78.7546 73.2014 78.359 73.9055 77.6549L88.9055 62.6549C89.2547 62.3065 89.5318 61.8927 89.7209 61.4371C89.9099 60.9815 90.0072 60.4931 90.0072 59.9999C90.0072 59.5066 89.9099 59.0182 89.7209 58.5626C89.5318 58.107 89.2547 57.6932 88.9055 57.3449L73.9055 42.3449ZM51.4055 47.6549C52.1087 46.9507 52.5033 45.9961 52.5026 45.001C52.5019 44.0058 52.1059 43.0518 51.4018 42.3486C50.6976 41.6455 49.743 41.2508 48.7479 41.2515C47.7527 41.2522 46.7987 41.6482 46.0955 42.3524L31.0955 57.3524C30.3925 58.0556 29.9976 59.0092 29.9976 60.0036C29.9976 60.998 30.3925 61.9516 31.0955 62.6549L46.0955 77.6549C46.7997 78.359 47.7547 78.7546 48.7505 78.7546C49.7463 78.7546 50.7014 78.359 51.4055 77.6549C52.1097 76.9507 52.5052 75.9957 52.5052 74.9999C52.5052 74.004 52.1097 73.049 51.4055 72.3449L39.053 59.9999L51.4055 47.6549Z" fill="url(#paint1_linear_496_182)"/>
<defs>
<linearGradient id="paint0_linear_496_182" x1="37.3125" y1="15" x2="87.4875" y2="106.5" gradientUnits="userSpaceOnUse">
<stop offset="0.028" stop-color="#E67EEA"/>
<stop offset="0.438" stop-color="#AD64D7"/>
<stop offset="1" stop-color="#794DC5"/>
</linearGradient>
<linearGradient id="paint1_linear_496_182" x1="44.228" y1="42.6899" x2="65.2055" y2="100.62" gradientUnits="userSpaceOnUse">
<stop stop-color="#FDFDFD"/>
<stop offset="1" stop-color="#F9DCFA"/>
</linearGradient>
</defs>
</svg>
