<svg width="48" height="48" viewBox="0 0 48 48" fill="none" xmlns="http://www.w3.org/2000/svg">
<rect width="48" height="48" rx="12" fill="#0045F6" fill-opacity="0.05"/>
<path d="M23.1653 20V23.3333H18.1666C17.5036 23.3333 16.8677 23.5967 16.3989 24.0656C15.93 24.5344 15.6666 25.1703 15.6666 25.8333V28H17.3333V25.8333C17.3333 25.3733 17.7066 25 18.1666 25H29.8326C30.2926 25 30.666 25.3733 30.666 25.8333V28H32.3326V25.8333C32.3326 25.1703 32.0692 24.5344 31.6004 24.0656C31.1316 23.5967 30.4957 23.3333 29.8326 23.3333H24.8326V20H23.1653Z" fill="url(#paint0_linear_1_342)"/>
<path d="M23.1653 20V23.3333H18.1666C17.5036 23.3333 16.8677 23.5967 16.3989 24.0656C15.93 24.5344 15.6666 25.1703 15.6666 25.8333V28H17.3333V25.8333C17.3333 25.3733 17.7066 25 18.1666 25H29.8326C30.2926 25 30.666 25.3733 30.666 25.8333V28H32.3326V25.8333C32.3326 25.1703 32.0692 24.5344 31.6004 24.0656C31.1316 23.5967 30.4957 23.3333 29.8326 23.3333H24.8326V20H23.1653Z" fill="url(#paint1_radial_1_342)"/>
<path d="M23.1653 20V23.3333H18.1666C17.5036 23.3333 16.8677 23.5967 16.3989 24.0656C15.93 24.5344 15.6666 25.1703 15.6666 25.8333V28H17.3333V25.8333C17.3333 25.3733 17.7066 25 18.1666 25H29.8326C30.2926 25 30.666 25.3733 30.666 25.8333V28H32.3326V25.8333C32.3326 25.1703 32.0692 24.5344 31.6004 24.0656C31.1316 23.5967 30.4957 23.3333 29.8326 23.3333H24.8326V20H23.1653Z" fill="url(#paint2_radial_1_342)"/>
<path d="M23.1653 20V23.3333H18.1666C17.5036 23.3333 16.8677 23.5967 16.3989 24.0656C15.93 24.5344 15.6666 25.1703 15.6666 25.8333V28H17.3333V25.8333C17.3333 25.3733 17.7066 25 18.1666 25H29.8326C30.2926 25 30.666 25.3733 30.666 25.8333V28H32.3326V25.8333C32.3326 25.1703 32.0692 24.5344 31.6004 24.0656C31.1316 23.5967 30.4957 23.3333 29.8326 23.3333H24.8326V20H23.1653Z" fill="url(#paint3_radial_1_342)"/>
<path d="M21.5 32.3307C21.5 33.6568 20.9732 34.9285 20.0355 35.8662C19.0979 36.8039 17.8261 37.3307 16.5 37.3307C15.1739 37.3307 13.9021 36.8039 12.9645 35.8662C12.0268 34.9285 11.5 33.6568 11.5 32.3307C11.5 31.0046 12.0268 29.7328 12.9645 28.7952C13.9021 27.8575 15.1739 27.3307 16.5 27.3307C17.8261 27.3307 19.0979 27.8575 20.0355 28.7952C20.9732 29.7328 21.5 31.0046 21.5 32.3307Z" fill="url(#paint4_radial_1_342)"/>
<path d="M36.4967 32.3334C36.4967 32.99 36.3674 33.6402 36.1161 34.2468C35.8648 34.8534 35.4965 35.4046 35.0322 35.8689C34.5679 36.3332 34.0167 36.7015 33.4101 36.9528C32.8035 37.204 32.1533 37.3334 31.4967 37.3334C30.8401 37.3334 30.1899 37.204 29.5833 36.9528C28.9767 36.7015 28.4255 36.3332 27.9612 35.8689C27.4969 35.4046 27.1286 34.8534 26.8773 34.2468C26.626 33.6402 26.4967 32.99 26.4967 32.3334C26.4967 31.0073 27.0235 29.7355 27.9612 28.7978C28.8989 27.8602 30.1706 27.3334 31.4967 27.3334C32.8228 27.3334 34.0946 27.8602 35.0322 28.7978C35.9699 29.7355 36.4967 31.0073 36.4967 32.3334Z" fill="url(#paint5_radial_1_342)"/>
<path d="M29 15.656C29 16.9821 28.4732 18.2539 27.5355 19.1915C26.5979 20.1292 25.3261 20.656 24 20.656C22.6739 20.656 21.4021 20.1292 20.4645 19.1915C19.5268 18.2539 19 16.9821 19 15.656C19 14.3299 19.5268 13.0582 20.4645 12.1205C21.4021 11.1828 22.6739 10.656 24 10.656C25.3261 10.656 26.5979 11.1828 27.5355 12.1205C28.4732 13.0582 29 14.3299 29 15.656Z" fill="url(#paint6_radial_1_342)"/>
<defs>
<linearGradient id="paint0_linear_1_342" x1="15.666" y1="20" x2="17.1706" y2="28.9527" gradientUnits="userSpaceOnUse">
<stop stop-color="#B9C0C7"/>
<stop offset="1" stop-color="#70777D"/>
</linearGradient>
<radialGradient id="paint1_radial_1_342" cx="0" cy="0" r="1" gradientUnits="userSpaceOnUse" gradientTransform="translate(23.9986 17.596) rotate(89.9851) scale(4.40409 9.17353)">
<stop offset="0.636" stop-color="#70777D"/>
<stop offset="1" stop-color="#70777D" stop-opacity="0"/>
</radialGradient>
<radialGradient id="paint2_radial_1_342" cx="0" cy="0" r="1" gradientUnits="userSpaceOnUse" gradientTransform="translate(16.5 29.8667) rotate(-90) scale(3.86639 8.0534)">
<stop offset="0.425" stop-color="#70777D"/>
<stop offset="1" stop-color="#70777D" stop-opacity="0"/>
</radialGradient>
<radialGradient id="paint3_radial_1_342" cx="0" cy="0" r="1" gradientUnits="userSpaceOnUse" gradientTransform="translate(31.472 29.8467) rotate(-90) scale(3.84716 8.01307)">
<stop offset="0.417" stop-color="#70777D"/>
<stop offset="1" stop-color="#70777D" stop-opacity="0"/>
</radialGradient>
<radialGradient id="paint4_radial_1_342" cx="0" cy="0" r="1" gradientUnits="userSpaceOnUse" gradientTransform="translate(5.45867 16.1847) rotate(53.616) scale(27.0427 23.1607)">
<stop offset="0.529" stop-color="#1EC8B0"/>
<stop offset="1" stop-color="#1A7F7C"/>
</radialGradient>
<radialGradient id="paint5_radial_1_342" cx="0" cy="0" r="1" gradientUnits="userSpaceOnUse" gradientTransform="translate(20.4554 16.1874) rotate(53.616) scale(27.0427 23.1607)">
<stop offset="0.529" stop-color="#7B7BFF"/>
<stop offset="1" stop-color="#4A43CB"/>
</radialGradient>
<radialGradient id="paint6_radial_1_342" cx="0" cy="0" r="1" gradientUnits="userSpaceOnUse" gradientTransform="translate(12.9587 -0.489994) rotate(53.616) scale(27.0427 23.1607)">
<stop offset="0.529" stop-color="#0FAFFF"/>
<stop offset="1" stop-color="#0067BF"/>
</radialGradient>
</defs>
</svg>
