<svg width="105" height="105" viewBox="0 0 105 105" fill="none" xmlns="http://www.w3.org/2000/svg">
<path d="M68.7751 59.9998C71.7562 60.0025 74.6144 61.1882 76.7219 63.2967C78.8293 65.4051 80.0138 68.2638 80.0151 71.2448V75.8348C80.0171 78.7032 79.122 81.5005 77.4551 83.8348C69.7251 94.6398 57.1001 99.9998 40.0001 99.9998C22.8901 99.9998 10.2751 94.6398 2.56514 83.8198C0.905768 81.4898 0.0143825 78.7003 0.0151372 75.8398V71.2398C0.0151369 68.257 1.19971 65.3963 3.30842 63.2867C5.41712 61.177 8.27732 59.9912 11.2601 59.9898L68.7751 59.9998Z" fill="url(#paint0_linear_496_168)"/>
<path d="M68.7751 59.9998C71.7562 60.0025 74.6144 61.1882 76.7219 63.2967C78.8293 65.4051 80.0138 68.2638 80.0151 71.2448V75.8348C80.0171 78.7032 79.122 81.5005 77.4551 83.8348C69.7251 94.6398 57.1001 99.9998 40.0001 99.9998C22.8901 99.9998 10.2751 94.6398 2.56514 83.8198C0.905768 81.4898 0.0143825 78.7003 0.0151372 75.8398V71.2398C0.0151369 68.257 1.19971 65.3963 3.30842 63.2867C5.41712 61.177 8.27732 59.9912 11.2601 59.9898L68.7751 59.9998Z" fill="url(#paint1_linear_496_168)"/>
<path d="M68.7751 59.9998C71.7562 60.0025 74.6144 61.1882 76.7219 63.2967C78.8293 65.4051 80.0138 68.2638 80.0151 71.2448V75.8348C80.0171 78.7032 79.122 81.5005 77.4551 83.8348C69.7251 94.6398 57.1001 99.9998 40.0001 99.9998C22.8901 99.9998 10.2751 94.6398 2.56514 83.8198C0.905768 81.4898 0.0143825 78.7003 0.0151372 75.8398V71.2398C0.0151369 68.257 1.19971 65.3963 3.30842 63.2867C5.41712 61.177 8.27732 59.9912 11.2601 59.9898L68.7751 59.9998Z" fill="url(#paint2_radial_496_168)" fill-opacity="0.5"/>
<path d="M40.001 0.0247192C43.284 0.0247192 46.5349 0.671362 49.5681 1.92773C52.6012 3.1841 55.3572 5.02558 57.6786 7.34705C60.0001 9.66851 61.8416 12.4245 63.098 15.4576C64.3543 18.4908 65.001 21.7417 65.001 25.0247C65.001 28.3078 64.3543 31.5587 63.098 34.5918C61.8416 37.6249 60.0001 40.3809 57.6786 42.7024C55.3572 45.0238 52.6012 46.8653 49.5681 48.1217C46.5349 49.3781 43.284 50.0247 40.001 50.0247C33.3706 50.0247 27.0117 47.3908 22.3233 42.7024C17.6349 38.014 15.001 31.6551 15.001 25.0247C15.001 18.3943 17.6349 12.0355 22.3233 7.34705C27.0117 2.65864 33.3706 0.0247192 40.001 0.0247192Z" fill="url(#paint3_linear_496_168)"/>
<path d="M77.5 49.9996C84.7935 49.9996 91.7882 52.8969 96.9454 58.0542C102.103 63.2114 105 70.2062 105 77.4996C105 84.7931 102.103 91.7878 96.9454 96.945C91.7882 102.102 84.7935 105 77.5 105C70.2065 105 63.2118 102.102 58.0546 96.945C52.8973 91.7878 50 84.7931 50 77.4996C50 70.2062 52.8973 63.2114 58.0546 58.0542C63.2118 52.8969 70.2065 49.9996 77.5 49.9996Z" fill="url(#paint4_linear_496_168)"/>
<path fill-rule="evenodd" clip-rule="evenodd" d="M94.2717 65.73C94.5045 65.9622 94.6892 66.2381 94.8153 66.5418C94.9413 66.8455 95.0062 67.1711 95.0062 67.5C95.0062 67.8288 94.9413 68.1544 94.8153 68.4581C94.6892 68.7619 94.5045 69.0378 94.2717 69.27L74.2717 89.27C74.0395 89.5028 73.7636 89.6875 73.4599 89.8135C73.1561 89.9396 72.8305 90.0045 72.5017 90.0045C72.1729 90.0045 71.8473 89.9396 71.5435 89.8135C71.2398 89.6875 70.9639 89.5028 70.7317 89.27L60.7317 79.27C60.2623 78.8005 59.9985 78.1639 59.9985 77.5C59.9985 76.8361 60.2623 76.1994 60.7317 75.73C61.2011 75.2605 61.8378 74.9968 62.5017 74.9968C63.1656 74.9968 63.8023 75.2605 64.2717 75.73L72.5017 83.965L90.7317 65.73C90.9639 65.4972 91.2398 65.3125 91.5435 65.1864C91.8473 65.0604 92.1729 64.9955 92.5017 64.9955C92.8305 64.9955 93.1561 65.0604 93.4599 65.1864C93.7636 65.3125 94.0395 65.4972 94.2717 65.73Z" fill="url(#paint5_linear_496_168)"/>
<defs>
<linearGradient id="paint0_linear_496_168" x1="19.0451" y1="65.3148" x2="31.9701" y2="106.595" gradientUnits="userSpaceOnUse">
<stop offset="0.125" stop-color="#9C6CFE"/>
<stop offset="1" stop-color="#7A41DC"/>
</linearGradient>
<linearGradient id="paint1_linear_496_168" x1="40.0201" y1="55.2348" x2="58.1201" y2="122.865" gradientUnits="userSpaceOnUse">
<stop stop-color="#885EDB" stop-opacity="0"/>
<stop offset="1" stop-color="#E362F8"/>
</linearGradient>
<radialGradient id="paint2_radial_496_168" cx="0" cy="0" r="1" gradientUnits="userSpaceOnUse" gradientTransform="translate(77.5001 82.4998) rotate(90) scale(42.5 42.4926)">
<stop offset="0.493" stop-color="#30116E"/>
<stop offset="0.912" stop-color="#30116E" stop-opacity="0"/>
</radialGradient>
<linearGradient id="paint3_linear_496_168" x1="26.891" y1="6.66972" x2="52.371" y2="47.3597" gradientUnits="userSpaceOnUse">
<stop offset="0.125" stop-color="#9C6CFE"/>
<stop offset="1" stop-color="#7A41DC"/>
</linearGradient>
<linearGradient id="paint4_linear_496_168" x1="51.965" y1="60.3146" x2="89.92" y2="99.7496" gradientUnits="userSpaceOnUse">
<stop stop-color="#52D17C"/>
<stop offset="1" stop-color="#22918B"/>
</linearGradient>
<linearGradient id="paint5_linear_496_168" x1="66.5667" y1="67.55" x2="72.2517" y2="95.65" gradientUnits="userSpaceOnUse">
<stop stop-color="white"/>
<stop offset="1" stop-color="#E3FFD9"/>
</linearGradient>
</defs>
</svg>
