<svg width="48" height="48" viewBox="0 0 48 48" fill="none" xmlns="http://www.w3.org/2000/svg">
<rect width="48" height="48" rx="12" fill="#0045F6" fill-opacity="0.05"/>
<path fill-rule="evenodd" clip-rule="evenodd" d="M14 30V29H17V30C17 31.932 18.568 33.5 20.5 33.5H24.5V36.5H20.5C18.7761 36.5 17.1228 35.8152 15.9038 34.5962C14.6848 33.3772 14 31.7239 14 30Z" fill="url(#paint0_linear_1_363)"/>
<path d="M27 35C27 35.7956 26.6839 36.5587 26.1213 37.1213C25.5587 37.6839 24.7956 38 24 38C23.2044 38 22.4413 37.6839 21.8787 37.1213C21.3161 36.5587 21 35.7956 21 35C21 34.2044 21.3161 33.4413 21.8787 32.8787C22.4413 32.3161 23.2044 32 24 32C24.7956 32 25.5587 32.3161 26.1213 32.8787C26.6839 33.4413 27 34.2044 27 35Z" fill="url(#paint1_linear_1_363)"/>
<path fill-rule="evenodd" clip-rule="evenodd" d="M24 13C22.1435 13 20.363 13.7375 19.0503 15.0503C17.7375 16.363 17 18.1435 17 20V24H14V20C14 17.3478 15.0536 14.8043 16.9289 12.9289C18.8043 11.0536 21.3478 10 24 10C26.6522 10 29.1957 11.0536 31.0711 12.9289C32.9464 14.8043 34 17.3478 34 20V24H31V20C31 18.1435 30.2625 16.363 28.9497 15.0503C27.637 13.7375 25.8565 13 24 13Z" fill="url(#paint2_linear_1_363)"/>
<path fill-rule="evenodd" clip-rule="evenodd" d="M14 30V22H17V30H14Z" fill="url(#paint3_linear_1_363)"/>
<path fill-rule="evenodd" clip-rule="evenodd" d="M31 22H34V27C34 27.7956 33.6839 28.5587 33.1213 29.1213C32.5587 29.6839 31.7956 30 31 30V22Z" fill="url(#paint4_linear_1_363)"/>
<path d="M20.5 30C20.8978 30 21.2794 29.842 21.5607 29.5607C21.842 29.2794 22 28.8978 22 28.5V23.5C22 23.1022 21.842 22.7206 21.5607 22.4393C21.2794 22.158 20.8978 22 20.5 22H17L15 26L17 30H20.5Z" fill="url(#paint5_linear_1_363)"/>
<path d="M27.5 22C27.1022 22 26.7206 22.158 26.4393 22.4393C26.158 22.7206 26 23.1022 26 23.5V28.5C26 29.328 26.672 30 27.5 30H31L33 26L31 22H27.5Z" fill="url(#paint6_linear_1_363)"/>
<defs>
<linearGradient id="paint0_linear_1_363" x1="20.75" y1="34" x2="19.342" y2="28.682" gradientUnits="userSpaceOnUse">
<stop stop-color="#9CA5AD"/>
<stop offset="1" stop-color="#70777D"/>
</linearGradient>
<linearGradient id="paint1_linear_1_363" x1="26.25" y1="37.25" x2="21.168" y2="34.28" gradientUnits="userSpaceOnUse">
<stop stop-color="#383B3D"/>
<stop offset="1" stop-color="#70777D"/>
</linearGradient>
<linearGradient id="paint2_linear_1_363" x1="10.188" y1="13.13" x2="15.64" y2="24.786" gradientUnits="userSpaceOnUse">
<stop stop-color="#B9C0C7"/>
<stop offset="1" stop-color="#70777D"/>
</linearGradient>
<linearGradient id="paint3_linear_1_363" x1="32.334" y1="22" x2="32.334" y2="30" gradientUnits="userSpaceOnUse">
<stop stop-color="#0078D4"/>
<stop offset="1" stop-color="#2052CB"/>
</linearGradient>
<linearGradient id="paint4_linear_1_363" x1="32.334" y1="22" x2="32.334" y2="30" gradientUnits="userSpaceOnUse">
<stop stop-color="#0078D4"/>
<stop offset="1" stop-color="#2052CB"/>
</linearGradient>
<linearGradient id="paint5_linear_1_363" x1="30.376" y1="22" x2="30.376" y2="30" gradientUnits="userSpaceOnUse">
<stop stop-color="#0FAFFF"/>
<stop offset="1" stop-color="#0067BF"/>
</linearGradient>
<linearGradient id="paint6_linear_1_363" x1="30.376" y1="22" x2="30.376" y2="30" gradientUnits="userSpaceOnUse">
<stop stop-color="#0FAFFF"/>
<stop offset="1" stop-color="#0067BF"/>
</linearGradient>
</defs>
</svg>
