<svg width="90" height="90" viewBox="0 0 90 90" fill="none" xmlns="http://www.w3.org/2000/svg">
<path d="M12.27 0C5.4975 0 0 5.76 0 12.855V70.7175C0 81.3675 8.2425 90 18.4125 90H67.5V12.855C67.5 5.76 62.0025 0 55.23 0H12.27Z" fill="url(#paint0_linear_496_194)"/>
<path d="M67.5 60H90V75C90 78.9782 88.4196 82.7936 85.6066 85.6066C82.7936 88.4196 78.9782 90 75 90H67.5V60Z" fill="url(#paint1_linear_496_194)"/>
<path d="M18.75 26.25C18.75 25.2554 19.1451 24.3016 19.8484 23.5984C20.5516 22.8951 21.5054 22.5 22.5 22.5H45C45.9946 22.5 46.9484 22.8951 47.6517 23.5984C48.3549 24.3016 48.75 25.2554 48.75 26.25C48.75 27.2446 48.3549 28.1984 47.6517 28.9016C46.9484 29.6049 45.9946 30 45 30H22.5C21.5054 30 20.5516 29.6049 19.8484 28.9016C19.1451 28.1984 18.75 27.2446 18.75 26.25Z" fill="url(#paint2_linear_496_194)"/>
<path d="M18.75 26.25C18.75 25.2554 19.1451 24.3016 19.8484 23.5984C20.5516 22.8951 21.5054 22.5 22.5 22.5H45C45.9946 22.5 46.9484 22.8951 47.6517 23.5984C48.3549 24.3016 48.75 25.2554 48.75 26.25C48.75 27.2446 48.3549 28.1984 47.6517 28.9016C46.9484 29.6049 45.9946 30 45 30H22.5C21.5054 30 20.5516 29.6049 19.8484 28.9016C19.1451 28.1984 18.75 27.2446 18.75 26.25Z" fill="url(#paint3_linear_496_194)"/>
<path d="M18.75 45C18.75 44.0054 19.1451 43.0516 19.8484 42.3484C20.5516 41.6451 21.5054 41.25 22.5 41.25H45C45.9946 41.25 46.9484 41.6451 47.6517 42.3484C48.3549 43.0516 48.75 44.0054 48.75 45C48.75 45.9946 48.3549 46.9484 47.6517 47.6517C46.9484 48.3549 45.9946 48.75 45 48.75H22.5C21.5054 48.75 20.5516 48.3549 19.8484 47.6517C19.1451 46.9484 18.75 45.9946 18.75 45Z" fill="url(#paint4_linear_496_194)"/>
<path d="M18.75 45C18.75 44.0054 19.1451 43.0516 19.8484 42.3484C20.5516 41.6451 21.5054 41.25 22.5 41.25H45C45.9946 41.25 46.9484 41.6451 47.6517 42.3484C48.3549 43.0516 48.75 44.0054 48.75 45C48.75 45.9946 48.3549 46.9484 47.6517 47.6517C46.9484 48.3549 45.9946 48.75 45 48.75H22.5C21.5054 48.75 20.5516 48.3549 19.8484 47.6517C19.1451 46.9484 18.75 45.9946 18.75 45Z" fill="url(#paint5_linear_496_194)"/>
<path d="M18.75 63.75C18.75 62.7554 19.1451 61.8016 19.8484 61.0983C20.5516 60.3951 21.5054 60 22.5 60H33.75C34.7446 60 35.6984 60.3951 36.4016 61.0983C37.1049 61.8016 37.5 62.7554 37.5 63.75C37.5 64.7446 37.1049 65.6984 36.4016 66.4017C35.6984 67.1049 34.7446 67.5 33.75 67.5H22.5C21.5054 67.5 20.5516 67.1049 19.8484 66.4017C19.1451 65.6984 18.75 64.7446 18.75 63.75Z" fill="url(#paint6_linear_496_194)"/>
<path d="M18.75 63.75C18.75 62.7554 19.1451 61.8016 19.8484 61.0983C20.5516 60.3951 21.5054 60 22.5 60H33.75C34.7446 60 35.6984 60.3951 36.4016 61.0983C37.1049 61.8016 37.5 62.7554 37.5 63.75C37.5 64.7446 37.1049 65.6984 36.4016 66.4017C35.6984 67.1049 34.7446 67.5 33.75 67.5H22.5C21.5054 67.5 20.5516 67.1049 19.8484 66.4017C19.1451 65.6984 18.75 64.7446 18.75 63.75Z" fill="url(#paint7_linear_496_194)"/>
<defs>
<linearGradient id="paint0_linear_496_194" x1="12.27" y1="3.2175" x2="42.285" y2="89.16" gradientUnits="userSpaceOnUse">
<stop stop-color="#FFE06B"/>
<stop offset="0.645" stop-color="#FFB357"/>
<stop offset="1" stop-color="#FF921F"/>
</linearGradient>
<linearGradient id="paint1_linear_496_194" x1="90" y1="72" x2="68.505" y2="76.65" gradientUnits="userSpaceOnUse">
<stop stop-color="#FE8401"/>
<stop offset="1" stop-color="#CA6407"/>
</linearGradient>
<linearGradient id="paint2_linear_496_194" x1="13.5" y1="60" x2="16.92" y2="74.3625" gradientUnits="userSpaceOnUse">
<stop stop-color="#FF921F"/>
<stop offset="1" stop-color="#CA6407"/>
</linearGradient>
<linearGradient id="paint3_linear_496_194" x1="12.75" y1="22.5" x2="57.1725" y2="58.0425" gradientUnits="userSpaceOnUse">
<stop stop-color="#FF921F"/>
<stop offset="1" stop-color="#CA6407"/>
</linearGradient>
<linearGradient id="paint4_linear_496_194" x1="13.5" y1="60" x2="16.92" y2="74.3625" gradientUnits="userSpaceOnUse">
<stop stop-color="#FF921F"/>
<stop offset="1" stop-color="#CA6407"/>
</linearGradient>
<linearGradient id="paint5_linear_496_194" x1="12.75" y1="22.5" x2="57.1725" y2="58.0425" gradientUnits="userSpaceOnUse">
<stop stop-color="#FF921F"/>
<stop offset="1" stop-color="#CA6407"/>
</linearGradient>
<linearGradient id="paint6_linear_496_194" x1="13.5" y1="60" x2="16.92" y2="74.3625" gradientUnits="userSpaceOnUse">
<stop stop-color="#FF921F"/>
<stop offset="1" stop-color="#CA6407"/>
</linearGradient>
<linearGradient id="paint7_linear_496_194" x1="12.75" y1="22.5" x2="57.1725" y2="58.0425" gradientUnits="userSpaceOnUse">
<stop stop-color="#FF921F"/>
<stop offset="1" stop-color="#CA6407"/>
</linearGradient>
</defs>
</svg>
