<svg width="103" height="28" viewBox="0 0 103 28" fill="none" xmlns="http://www.w3.org/2000/svg">
<g clip-path="url(#clip0_1_507)">
<path d="M59.6472 3.07324H57.778V5.07348H59.6472V3.07324Z" fill="#1E1E1E" stroke="#1E1E1E" stroke-width="0.62" stroke-miterlimit="10"/>
<path d="M42.2304 18.1596C41.5916 17.8643 41.0513 17.4627 40.6116 16.9548C40.1719 16.4468 39.8347 15.8522 39.6 15.173C39.3674 14.4938 39.249 13.7693 39.249 12.9996C39.249 12.2298 39.3694 11.5072 39.6099 10.826C39.8504 10.1468 40.1936 9.55228 40.6412 9.04435C41.0888 8.53642 41.6212 8.13475 42.2403 7.83948C42.8594 7.54415 43.5476 7.39648 44.3028 7.39648C45.0994 7.39648 45.8054 7.54415 46.4166 7.83948C47.0279 8.13475 47.5406 8.54622 47.9527 9.07582C48.3648 9.60348 48.6783 10.2354 48.8913 10.9698C49.1042 11.7041 49.2107 12.5113 49.2107 13.3894H40.9606C40.9882 13.9248 41.0848 14.4269 41.2485 14.8935C41.4141 15.36 41.6409 15.7656 41.9288 16.1082C42.2186 16.4508 42.5676 16.7185 42.9817 16.9114C43.3938 17.1044 43.869 17.2008 44.4054 17.2008C45.1902 17.2008 45.829 17.0197 46.324 16.6555C46.8189 16.2913 47.162 15.7459 47.3552 15.0175H48.984C48.7375 16.1712 48.215 17.0552 47.4164 17.6733C46.6197 18.2915 45.6141 18.6006 44.4054 18.6006C43.595 18.6006 42.8693 18.453 42.2285 18.1576L42.2304 18.1596ZM42.9837 8.97542C42.5992 9.14668 42.2718 9.38688 42.0037 9.69602C41.7355 10.0051 41.5147 10.3693 41.3431 10.7867C41.1716 11.206 41.0572 11.6549 41.002 12.1353H47.4164C47.3612 11.0643 47.0693 10.2276 46.5389 9.62315C46.0084 9.01875 45.2631 8.71755 44.3009 8.71755C43.806 8.71755 43.3662 8.80415 42.9817 8.97542H42.9837Z" fill="#1E1E1E" stroke="#1E1E1E" stroke-width="0.62" stroke-miterlimit="10"/>
<path d="M50.9098 7.42994H52.3728L52.4458 8.91241H52.4872C52.7948 8.43201 53.1931 8.01268 53.6841 7.65441C54.1751 7.29608 54.7666 7.11694 55.4568 7.11694C55.6165 7.11694 55.786 7.13461 55.9635 7.16808C56.141 7.20354 56.2692 7.23501 56.3441 7.26261V8.77654C56.1982 8.74901 56.0424 8.72534 55.8787 8.70768C55.7151 8.68994 55.5396 8.68208 55.3503 8.68208C54.668 8.68208 54.0864 8.85928 53.6092 9.21361C53.132 9.56801 52.7712 10.007 52.5266 10.5287V18.4115H50.9058V7.42994H50.9098Z" fill="#1E1E1E" stroke="#1E1E1E" stroke-width="0.62" stroke-miterlimit="10"/>
<path d="M59.5296 7.43018H57.9087V18.4138H59.5296V7.43018Z" fill="#1E1E1E" stroke="#1E1E1E" stroke-width="0.62" stroke-miterlimit="10"/>
<path d="M61.903 7.4301H63.366L63.439 8.91257H63.4804C63.788 8.44597 64.2494 8.0483 64.8666 7.71757C65.4838 7.38684 66.1956 7.22144 67.006 7.22144C68.422 7.22144 69.544 7.74317 70.374 8.78857C71.204 9.83197 71.618 11.155 71.618 12.7556V13.0902C71.618 14.6908 71.204 16.0138 70.374 17.0572C69.544 18.1007 68.422 18.6224 67.006 18.6224C66.1976 18.6224 65.5035 18.4806 64.9258 18.1952C64.348 17.9097 63.8807 17.5337 63.5238 17.0671V22.7567H61.903V7.4301ZM64.6852 16.6753C65.2216 17.069 65.8703 17.2659 66.6294 17.2659C67.7813 17.2659 68.6206 16.8682 69.1553 16.0748C69.69 15.2814 69.956 14.2852 69.956 13.0882V12.7536C69.956 11.5566 69.69 10.5604 69.1553 9.76704C68.6226 8.97364 67.7813 8.5759 66.6294 8.5759C65.8703 8.5759 65.2216 8.77277 64.6852 9.16657C64.1488 9.5603 63.7604 10.0111 63.5238 10.519V15.3228C63.7604 15.8307 64.1469 16.2816 64.6852 16.6753Z" fill="#1E1E1E" stroke="#1E1E1E" stroke-width="0.62" stroke-miterlimit="10"/>
<path d="M73.9354 12.6767C74.8167 12.0684 75.9387 11.7632 77.2974 11.7632H79.9947V10.897C79.9947 10.1666 79.8074 9.57399 79.4347 9.12119C79.062 8.66832 78.4114 8.44192 77.4847 8.44192C76.558 8.44192 75.8934 8.63092 75.4927 9.01092C75.0927 9.39086 74.8914 9.84372 74.8914 10.3733V10.4265H73.2927V10.3733C73.2927 9.48339 73.6747 8.71759 74.442 8.07579C75.2087 7.43592 76.24 7.11499 77.538 7.11499C78.8354 7.11499 79.8407 7.43199 80.5547 8.06592C81.2687 8.69986 81.6274 9.64286 81.6274 10.895V15.9074C81.6274 16.3602 81.6627 16.7855 81.738 17.1871C81.8127 17.5887 81.9134 17.9411 82.0474 18.2463V18.4136H80.4894C80.3774 18.2325 80.2807 17.9963 80.198 17.7029C80.1147 17.4115 80.0614 17.1182 80.042 16.8268C79.77 17.2855 79.328 17.7009 78.7187 18.0691C78.1094 18.4373 77.3267 18.6223 76.3707 18.6223C75.3174 18.6223 74.43 18.3388 73.7047 17.7718C72.9787 17.2048 72.618 16.3641 72.618 15.2499C72.618 14.1355 73.06 13.2851 73.9414 12.6767H73.9354ZM74.844 16.7481C75.2527 17.1143 75.8854 17.2973 76.7434 17.2973C77.6007 17.2973 78.34 17.0197 79.0007 16.4626C79.6634 15.9055 79.9947 15.3109 79.9947 14.6769V12.9543H77.516C76.4414 12.9543 75.6274 13.1512 75.0687 13.5449C74.5107 13.9387 74.2327 14.4801 74.2327 15.1691C74.2327 15.8582 74.436 16.3858 74.844 16.75V16.7481Z" fill="#1E1E1E" stroke="#1E1E1E" stroke-width="0.62" stroke-miterlimit="10"/>
<path d="M84.764 15.177V15.2282C84.764 15.9448 85.0246 16.4803 85.5426 16.8367C86.0613 17.191 86.744 17.3682 87.588 17.3682C88.4313 17.3682 89.106 17.1949 89.5913 16.8465C90.076 16.4981 90.3167 16.0491 90.3167 15.4999C90.3167 14.9506 90.1213 14.5372 89.7313 14.2635C89.3406 13.9879 88.536 13.7123 87.3153 13.4327C86.1027 13.1551 85.1606 12.7633 84.488 12.2574C83.8153 11.7534 83.4786 11.0623 83.4786 10.1843C83.4786 9.30626 83.8473 8.56792 84.5866 7.98719C85.326 7.40639 86.312 7.11499 87.546 7.11499C88.7806 7.11499 89.784 7.41819 90.5373 8.02459C91.2906 8.62899 91.6673 9.42432 91.6673 10.4048V10.456H90.0467V10.393C90.0467 9.80826 89.8393 9.34166 89.4253 8.99319C89.0093 8.64472 88.3847 8.47146 87.548 8.47146C86.712 8.47146 86.0933 8.62112 85.6926 8.92032C85.2926 9.21959 85.0913 9.60546 85.0913 10.0799C85.0913 10.5544 85.3006 10.9305 85.7186 11.212C86.1366 11.4935 86.9526 11.775 88.1653 12.0526C89.386 12.3302 90.3186 12.72 90.9673 13.2221C91.616 13.7221 91.9393 14.4505 91.9393 15.4034C91.9393 16.3563 91.5766 17.1575 90.8513 17.7836C90.1253 18.4097 89.0386 18.7227 87.588 18.7227C86.1366 18.7227 85.042 18.4038 84.2826 17.7679C83.524 17.1319 83.1433 16.2835 83.1433 15.2262V15.1751H84.764V15.177Z" fill="#1E1E1E" stroke="#1E1E1E" stroke-width="0.62" stroke-miterlimit="10"/>
<path d="M94.8246 15.177V15.2282C94.8246 15.9448 95.0846 16.4803 95.6033 16.8367C96.122 17.191 96.804 17.3682 97.648 17.3682C98.492 17.3682 99.1666 17.1949 99.6513 16.8465C100.137 16.4981 100.377 16.0491 100.377 15.4999C100.377 14.9506 100.182 14.5372 99.7913 14.2635C99.4013 13.9879 98.5966 13.7123 97.376 13.4327C96.1633 13.1551 95.2206 12.7633 94.5486 12.2574C93.876 11.7534 93.5386 11.0623 93.5386 10.1843C93.5386 9.30626 93.9073 8.56792 94.6466 7.98719C95.3866 7.40639 96.3726 7.11499 97.6066 7.11499C98.8413 7.11499 99.8446 7.41819 100.598 8.02459C101.351 8.62899 101.728 9.42432 101.728 10.4048V10.456H100.107V10.393C100.107 9.80826 99.9 9.34166 99.486 8.99319C99.07 8.64472 98.4446 8.47146 97.6086 8.47146C96.7726 8.47146 96.1533 8.62112 95.7533 8.92032C95.3526 9.21959 95.152 9.60546 95.152 10.0799C95.152 10.5544 95.3606 10.9305 95.7786 11.212C96.1966 11.4935 97.0133 11.775 98.226 12.0526C99.4466 12.3302 100.379 12.72 101.028 13.2221C101.677 13.7221 102 14.4505 102 15.4034C102 16.3563 101.637 17.1575 100.911 17.7836C100.186 18.4097 99.0993 18.7227 97.648 18.7227C96.1966 18.7227 95.1026 18.4038 94.3433 17.7679C93.584 17.1319 93.2033 16.2835 93.2033 15.2262V15.1751H94.8246V15.177Z" fill="#1E1E1E" stroke="#1E1E1E" stroke-width="0.62" stroke-miterlimit="10"/>
<path d="M29.7862 6.36523L32.9706 14.9981C33.0791 15.3073 33.1737 15.5907 33.2546 15.8447C33.3354 16.1007 33.3966 16.3211 33.434 16.5062H33.5148C33.5543 16.3211 33.6115 16.1007 33.6884 15.8447C33.7653 15.5887 33.8619 15.3073 33.9782 14.9981L37.1509 6.36523H38.9176L34.1754 18.5714H32.7222L27.98 6.36523H29.7822H29.7862Z" fill="#1E1E1E" stroke="#1E1E1E" stroke-width="0.62" stroke-miterlimit="10"/>
<path d="M15.2049 0.547855L3.28798 2.53403C1.47208 2.83668 0.245349 4.55411 0.548003 6.37001L3.51821 24.191C3.82087 26.007 5.5383 27.2337 7.3542 26.931L19.2711 24.9449C21.087 24.6422 22.3137 22.9248 22.0111 21.1089L19.0408 3.28783C18.7382 1.47193 17.0208 0.245201 15.2049 0.547855Z" fill="#0045F6"/>
<path d="M11.2797 21.4964C15.5638 21.4964 19.0367 18.0235 19.0367 13.7394C19.0367 9.45535 15.5638 5.98242 11.2797 5.98242C6.99563 5.98242 3.52271 9.45535 3.52271 13.7394C3.52271 18.0235 6.99563 21.4964 11.2797 21.4964Z" fill="white"/>
<path d="M9.09257 19.0814L5.2157 13.0467L8.6171 15.168L15.3102 6.79248L15.7491 7.15821L9.09257 19.0814Z" fill="#0045F6"/>
</g>
<defs>
<clipPath id="clip0_1_507">
<rect width="102.667" height="28" fill="white"/>
</clipPath>
</defs>
</svg>
