<svg width="103" height="28" viewBox="0 0 103 28" fill="none" xmlns="http://www.w3.org/2000/svg">
<g clip-path="url(#clip0_173_322)">
<path d="M59.6478 3.07324H57.7786V5.07348H59.6478V3.07324Z" fill="white" stroke="white" stroke-width="0.62" stroke-miterlimit="10"/>
<path d="M42.2304 18.1596C41.5916 17.8643 41.0513 17.4627 40.6116 16.9548C40.1719 16.4468 39.8347 15.8522 39.6 15.173C39.3674 14.4938 39.249 13.7693 39.249 12.9996C39.249 12.2298 39.3694 11.5072 39.6099 10.826C39.8504 10.1468 40.1936 9.55228 40.6412 9.04435C41.0888 8.53642 41.6212 8.13475 42.2403 7.83948C42.8594 7.54415 43.5476 7.39648 44.3028 7.39648C45.0994 7.39648 45.8054 7.54415 46.4166 7.83948C47.0279 8.13475 47.5406 8.54622 47.9527 9.07582C48.3648 9.60348 48.6783 10.2354 48.8913 10.9698C49.1042 11.7041 49.2107 12.5113 49.2107 13.3894H40.9606C40.9882 13.9248 41.0848 14.4269 41.2485 14.8935C41.4141 15.36 41.6409 15.7656 41.9288 16.1082C42.2186 16.4508 42.5676 16.7185 42.9817 16.9114C43.3938 17.1044 43.869 17.2008 44.4054 17.2008C45.1902 17.2008 45.829 17.0197 46.324 16.6555C46.8189 16.2913 47.162 15.7459 47.3552 15.0175H48.984C48.7375 16.1712 48.215 17.0552 47.4164 17.6733C46.6197 18.2915 45.6141 18.6006 44.4054 18.6006C43.595 18.6006 42.8693 18.453 42.2285 18.1576L42.2304 18.1596ZM42.9837 8.97542C42.5992 9.14668 42.2718 9.38688 42.0037 9.69602C41.7355 10.0051 41.5147 10.3693 41.3431 10.7867C41.1716 11.206 41.0572 11.6549 41.002 12.1353H47.4164C47.3612 11.0643 47.0693 10.2276 46.5389 9.62315C46.0084 9.01875 45.2631 8.71755 44.3009 8.71755C43.806 8.71755 43.3662 8.80415 42.9817 8.97542H42.9837Z" fill="white" stroke="white" stroke-width="0.62" stroke-miterlimit="10"/>
<path d="M50.9103 7.42994H52.3733L52.4463 8.91241H52.4877C52.7953 8.43201 53.1936 8.01268 53.6846 7.65441C54.1756 7.29608 54.7671 7.11694 55.4573 7.11694C55.617 7.11694 55.7865 7.13461 55.964 7.16808C56.1415 7.20354 56.2697 7.23501 56.3446 7.26261V8.77654C56.1987 8.74901 56.0429 8.72534 55.8792 8.70768C55.7156 8.68994 55.5401 8.68208 55.3508 8.68208C54.6685 8.68208 54.0868 8.85928 53.6096 9.21361C53.1324 9.56801 52.7717 10.007 52.5271 10.5287V18.4115H50.9062V7.42994H50.9103Z" fill="white" stroke="white" stroke-width="0.62" stroke-miterlimit="10"/>
<path d="M59.53 7.43018H57.9092V18.4138H59.53V7.43018Z" fill="white" stroke="white" stroke-width="0.62" stroke-miterlimit="10"/>
<path d="M61.9036 7.4301H63.3666L63.4396 8.91257H63.481C63.7886 8.44597 64.25 8.0483 64.8672 7.71757C65.4844 7.38684 66.1962 7.22144 67.0066 7.22144C68.4226 7.22144 69.5446 7.74317 70.3746 8.78857C71.2046 9.83197 71.6186 11.155 71.6186 12.7556V13.0902C71.6186 14.6908 71.2046 16.0138 70.3746 17.0572C69.5446 18.1007 68.4226 18.6224 67.0066 18.6224C66.1982 18.6224 65.5041 18.4806 64.9264 18.1952C64.3486 17.9097 63.8813 17.5337 63.5244 17.0671V22.7567H61.9036V7.4301ZM64.6858 16.6753C65.2222 17.069 65.8709 17.2659 66.63 17.2659C67.7819 17.2659 68.6212 16.8682 69.1559 16.0748C69.6906 15.2814 69.9566 14.2852 69.9566 13.0882V12.7536C69.9566 11.5566 69.6906 10.5604 69.1559 9.76704C68.6232 8.97364 67.7819 8.5759 66.63 8.5759C65.8709 8.5759 65.2222 8.77277 64.6858 9.16657C64.1494 9.5603 63.761 10.0111 63.5244 10.519V15.3228C63.761 15.8307 64.1475 16.2816 64.6858 16.6753Z" fill="white" stroke="white" stroke-width="0.62" stroke-miterlimit="10"/>
<path d="M73.9355 12.6767C74.8168 12.0684 75.9388 11.7632 77.2975 11.7632H79.9948V10.897C79.9948 10.1666 79.8075 9.57399 79.4348 9.12119C79.0622 8.66832 78.4115 8.44192 77.4848 8.44192C76.5582 8.44192 75.8935 8.63092 75.4928 9.01092C75.0928 9.39086 74.8915 9.84372 74.8915 10.3733V10.4265H73.2928V10.3733C73.2928 9.48339 73.6748 8.71759 74.4422 8.07579C75.2088 7.43592 76.2402 7.11499 77.5382 7.11499C78.8355 7.11499 79.8408 7.43199 80.5548 8.06592C81.2688 8.69986 81.6275 9.64286 81.6275 10.895V15.9074C81.6275 16.3602 81.6628 16.7855 81.7382 17.1871C81.8128 17.5887 81.9135 17.9411 82.0475 18.2463V18.4136H80.4895C80.3775 18.2325 80.2808 17.9963 80.1982 17.7029C80.1148 17.4115 80.0615 17.1182 80.0422 16.8268C79.7702 17.2855 79.3282 17.7009 78.7188 18.0691C78.1095 18.4373 77.3268 18.6223 76.3708 18.6223C75.3175 18.6223 74.4302 18.3388 73.7048 17.7718C72.9788 17.2048 72.6182 16.3641 72.6182 15.2499C72.6182 14.1355 73.0602 13.2851 73.9415 12.6767H73.9355ZM74.8442 16.7481C75.2528 17.1143 75.8855 17.2973 76.7435 17.2973C77.6008 17.2973 78.3402 17.0197 79.0008 16.4626C79.6635 15.9055 79.9948 15.3109 79.9948 14.6769V12.9543H77.5162C76.4415 12.9543 75.6275 13.1512 75.0688 13.5449C74.5108 13.9387 74.2328 14.4801 74.2328 15.1691C74.2328 15.8582 74.4362 16.3858 74.8442 16.75V16.7481Z" fill="white" stroke="white" stroke-width="0.62" stroke-miterlimit="10"/>
<path d="M84.7642 15.177V15.2282C84.7642 15.9448 85.0249 16.4803 85.5429 16.8367C86.0616 17.191 86.7442 17.3682 87.5882 17.3682C88.4316 17.3682 89.1062 17.1949 89.5916 16.8465C90.0762 16.4981 90.3169 16.0491 90.3169 15.4999C90.3169 14.9506 90.1216 14.5372 89.7316 14.2635C89.3409 13.9879 88.5362 13.7123 87.3156 13.4327C86.1029 13.1551 85.1609 12.7633 84.4882 12.2574C83.8156 11.7534 83.4789 11.0623 83.4789 10.1843C83.4789 9.30626 83.8476 8.56792 84.5869 7.98719C85.3262 7.40639 86.3122 7.11499 87.5462 7.11499C88.7809 7.11499 89.7842 7.41819 90.5376 8.02459C91.2909 8.62899 91.6676 9.42432 91.6676 10.4048V10.456H90.0469V10.393C90.0469 9.80826 89.8396 9.34166 89.4256 8.99319C89.0096 8.64472 88.3849 8.47146 87.5482 8.47146C86.7122 8.47146 86.0936 8.62112 85.6929 8.92032C85.2929 9.21959 85.0916 9.60546 85.0916 10.0799C85.0916 10.5544 85.3009 10.9305 85.7189 11.212C86.1369 11.4935 86.9529 11.775 88.1656 12.0526C89.3862 12.3302 90.3189 12.72 90.9676 13.2221C91.6162 13.7221 91.9396 14.4505 91.9396 15.4034C91.9396 16.3563 91.5769 17.1575 90.8516 17.7836C90.1256 18.4097 89.0389 18.7227 87.5882 18.7227C86.1369 18.7227 85.0422 18.4038 84.2829 17.7679C83.5242 17.1319 83.1436 16.2835 83.1436 15.2262V15.1751H84.7642V15.177Z" fill="white" stroke="white" stroke-width="0.62" stroke-miterlimit="10"/>
<path d="M94.8254 15.177V15.2282C94.8254 15.9448 95.0854 16.4803 95.6041 16.8367C96.1228 17.191 96.8048 17.3682 97.6488 17.3682C98.4928 17.3682 99.1674 17.1949 99.6521 16.8465C100.137 16.4981 100.378 16.0491 100.378 15.4999C100.378 14.9506 100.183 14.5372 99.7921 14.2635C99.4021 13.9879 98.5974 13.7123 97.3768 13.4327C96.1641 13.1551 95.2214 12.7633 94.5494 12.2574C93.8768 11.7534 93.5394 11.0623 93.5394 10.1843C93.5394 9.30626 93.9081 8.56792 94.6474 7.98719C95.3874 7.40639 96.3734 7.11499 97.6074 7.11499C98.8421 7.11499 99.8454 7.41819 100.599 8.02459C101.352 8.62899 101.729 9.42432 101.729 10.4048V10.456H100.107V10.393C100.107 9.80826 99.9008 9.34166 99.4868 8.99319C99.0708 8.64472 98.4454 8.47146 97.6094 8.47146C96.7734 8.47146 96.1541 8.62112 95.7541 8.92032C95.3534 9.21959 95.1528 9.60546 95.1528 10.0799C95.1528 10.5544 95.3614 10.9305 95.7794 11.212C96.1974 11.4935 97.0141 11.775 98.2268 12.0526C99.4474 12.3302 100.38 12.72 101.029 13.2221C101.677 13.7221 102.001 14.4505 102.001 15.4034C102.001 16.3563 101.638 17.1575 100.912 17.7836C100.187 18.4097 99.1001 18.7227 97.6488 18.7227C96.1974 18.7227 95.1034 18.4038 94.3441 17.7679C93.5848 17.1319 93.2041 16.2835 93.2041 15.2262V15.1751H94.8254V15.177Z" fill="white" stroke="white" stroke-width="0.62" stroke-miterlimit="10"/>
<path d="M29.7867 6.36523L32.9711 14.9981C33.0796 15.3073 33.1742 15.5907 33.2551 15.8447C33.3359 16.1007 33.3971 16.3211 33.4345 16.5062H33.5153C33.5548 16.3211 33.612 16.1007 33.6889 15.8447C33.7658 15.5887 33.8624 15.3073 33.9787 14.9981L37.1514 6.36523H38.9181L34.1759 18.5714H32.7227L27.9805 6.36523H29.7827H29.7867Z" fill="white" stroke="white" stroke-width="0.62" stroke-miterlimit="10"/>
<path d="M15.2049 0.547855L3.28798 2.53403C1.47208 2.83668 0.245349 4.55411 0.548003 6.37001L3.51821 24.191C3.82087 26.007 5.5383 27.2337 7.3542 26.931L19.2711 24.9449C21.087 24.6422 22.3137 22.9248 22.0111 21.1089L19.0408 3.28783C18.7382 1.47193 17.0208 0.245201 15.2049 0.547855Z" fill="#0045F6"/>
<path d="M11.2795 21.4964C15.5635 21.4964 19.0365 18.0235 19.0365 13.7394C19.0365 9.45535 15.5635 5.98242 11.2795 5.98242C6.99539 5.98242 3.52246 9.45535 3.52246 13.7394C3.52246 18.0235 6.99539 21.4964 11.2795 21.4964Z" fill="white"/>
<path d="M9.09245 19.0814L5.21558 13.0467L8.61698 15.168L15.3101 6.79248L15.749 7.15821L9.09245 19.0814Z" fill="#0045F6"/>
</g>
<defs>
<clipPath id="clip0_173_322">
<rect width="102.667" height="28" fill="white"/>
</clipPath>
</defs>
</svg>
