<svg width="48" height="48" viewBox="0 0 48 48" fill="none" xmlns="http://www.w3.org/2000/svg">
<rect width="48" height="48" rx="12" fill="#0045F6" fill-opacity="0.05"/>
<path d="M12.8 28.8C12.8 27.0192 14.2448 25.6 16.0144 25.6H32C32.8487 25.6 33.6626 25.9371 34.2627 26.5372C34.8629 27.1374 35.2 27.9513 35.2 28.8C35.2 31.5056 33.8672 33.5456 31.784 34.8752C29.7328 36.1824 26.968 36.8 24 36.8C21.032 36.8 18.2672 36.1824 16.216 34.8752C14.1328 33.5472 12.8 31.504 12.8 28.8Z" fill="url(#paint0_linear_1_380)"/>
<path d="M12.8 28.8C12.8 27.0192 14.2448 25.6 16.0144 25.6H32C32.8487 25.6 33.6626 25.9371 34.2627 26.5372C34.8629 27.1374 35.2 27.9513 35.2 28.8C35.2 31.5056 33.8672 33.5456 31.784 34.8752C29.7328 36.1824 26.968 36.8 24 36.8C21.032 36.8 18.2672 36.1824 16.216 34.8752C14.1328 33.5472 12.8 31.504 12.8 28.8Z" fill="url(#paint1_linear_1_380)"/>
<path d="M12.8 28.8C12.8 27.0192 14.2448 25.6 16.0144 25.6H32C32.8487 25.6 33.6626 25.9371 34.2627 26.5372C34.8629 27.1374 35.2 27.9513 35.2 28.8C35.2 31.5056 33.8672 33.5456 31.784 34.8752C29.7328 36.1824 26.968 36.8 24 36.8C21.032 36.8 18.2672 36.1824 16.216 34.8752C14.1328 33.5472 12.8 31.504 12.8 28.8Z" fill="url(#paint2_radial_1_380)" fill-opacity="0.5"/>
<path d="M24 11.2C22.3026 11.2 20.6748 11.8742 19.4745 13.0745C18.2743 14.2747 17.6 15.9026 17.6 17.6C17.6 19.2973 18.2743 20.9252 19.4745 22.1254C20.6748 23.3257 22.3026 24 24 24C25.6974 24 27.3253 23.3257 28.5255 22.1254C29.7257 20.9252 30.4 19.2973 30.4 17.6C30.4 15.9026 29.7257 14.2747 28.5255 13.0745C27.3253 11.8742 25.6974 11.2 24 11.2Z" fill="url(#paint3_linear_1_380)"/>
<path d="M38.4 31.2C38.4 29.2904 37.6414 27.4591 36.2912 26.1088C34.9409 24.7586 33.1096 24 31.2 24C29.2904 24 27.4591 24.7586 26.1088 26.1088C24.7586 27.4591 24 29.2904 24 31.2C24 33.1096 24.7586 34.9409 26.1088 36.2912C27.4591 37.6414 29.2904 38.4 31.2 38.4C33.1096 38.4 34.9409 37.6414 36.2912 36.2912C37.6414 34.9409 38.4 33.1096 38.4 31.2Z" fill="url(#paint4_linear_1_380)"/>
<path fill-rule="evenodd" clip-rule="evenodd" d="M34.9664 28.2336C35.0409 28.3079 35.1 28.3962 35.1403 28.4934C35.1807 28.5905 35.2014 28.6947 35.2014 28.8C35.2014 28.9052 35.1807 29.0094 35.1403 29.1066C35.1 29.2038 35.0409 29.2921 34.9664 29.3664L30.1664 34.1664C30.0921 34.2409 30.0038 34.3 29.9066 34.3403C29.8094 34.3806 29.7052 34.4014 29.6 34.4014C29.4948 34.4014 29.3906 34.3806 29.2934 34.3403C29.1962 34.3 29.1079 34.2409 29.0336 34.1664L27.4336 32.5664C27.2834 32.4161 27.199 32.2124 27.199 32C27.199 31.7875 27.2834 31.5838 27.4336 31.4336C27.5838 31.2833 27.7876 31.199 28 31.199C28.2124 31.199 28.4162 31.2833 28.5664 31.4336L29.6 32.4688L33.8336 28.2336C33.9079 28.1591 33.9962 28.1 34.0934 28.0596C34.1906 28.0193 34.2948 27.9985 34.4 27.9985C34.5052 27.9985 34.6094 28.0193 34.7066 28.0596C34.8038 28.1 34.8921 28.1591 34.9664 28.2336Z" fill="url(#paint5_linear_1_380)"/>
<defs>
<linearGradient id="paint0_linear_1_380" x1="18.1264" y1="27.0896" x2="21.7456" y2="38.6448" gradientUnits="userSpaceOnUse">
<stop offset="0.125" stop-color="#9C6CFE"/>
<stop offset="1" stop-color="#7A41DC"/>
</linearGradient>
<linearGradient id="paint1_linear_1_380" x1="24" y1="24.2672" x2="29.0672" y2="43.2" gradientUnits="userSpaceOnUse">
<stop stop-color="#885EDB" stop-opacity="0"/>
<stop offset="1" stop-color="#E362F8"/>
</linearGradient>
<radialGradient id="paint2_radial_1_380" cx="0" cy="0" r="1" gradientUnits="userSpaceOnUse" gradientTransform="translate(31.2 32.8) rotate(90) scale(10.4)">
<stop offset="0.423" stop-color="#30116E"/>
<stop offset="1" stop-color="#30116E" stop-opacity="0"/>
</radialGradient>
<linearGradient id="paint3_linear_1_380" x1="20.6432" y1="12.9008" x2="27.1664" y2="23.3184" gradientUnits="userSpaceOnUse">
<stop offset="0.125" stop-color="#9C6CFE"/>
<stop offset="1" stop-color="#7A41DC"/>
</linearGradient>
<linearGradient id="paint4_linear_1_380" x1="24.5136" y1="26.7008" x2="34.4512" y2="37.0256" gradientUnits="userSpaceOnUse">
<stop stop-color="#52D17C"/>
<stop offset="1" stop-color="#22918B"/>
</linearGradient>
<linearGradient id="paint5_linear_1_380" x1="28.7008" y1="28.6528" x2="30.3136" y2="35.776" gradientUnits="userSpaceOnUse">
<stop stop-color="white"/>
<stop offset="1" stop-color="#E3FFD9"/>
</linearGradient>
</defs>
</svg>
