<svg width="76" height="90" viewBox="0 0 76 90" fill="none" xmlns="http://www.w3.org/2000/svg">
<path d="M35.3525 1.09496C35.7008 0.745734 36.1147 0.468664 36.5702 0.279615C37.0258 0.090567 37.5142 -0.00674438 38.0075 -0.00674438C38.5008 -0.00674438 38.9892 0.090567 39.4448 0.279615C39.9003 0.468664 40.3142 0.745734 40.6625 1.09496C49.9625 10.425 60.2675 15 71.75 15C72.7446 15 73.6984 15.395 74.4017 16.0983C75.1049 16.8016 75.5 17.7554 75.5 18.75V41.2575C75.5 65.4 63.1925 81.81 39.185 89.805C38.4158 90.0612 37.5842 90.0612 36.815 89.805C12.815 81.81 0.5 65.4 0.5 41.2575V18.75C0.5 17.7554 0.895089 16.8016 1.59835 16.0983C2.30161 15.395 3.25544 15 4.25 15C15.725 15 26.03 10.4175 35.3525 1.09496Z" fill="url(#paint0_radial_496_159)"/>
<defs>
<radialGradient id="paint0_radial_496_159" cx="0" cy="0" r="1" gradientUnits="userSpaceOnUse" gradientTransform="translate(-28.9675 -50.625) rotate(56.554) scale(208.98 179.572)">
<stop offset="0.338" stop-color="#0FAFFF"/>
<stop offset="0.529" stop-color="#367AF2"/>
<stop offset="0.682" stop-color="#5750E2"/>
<stop offset="0.861" stop-color="#CC23D1"/>
</radialGradient>
</defs>
</svg>
